{"title":"The.Last.Station.Limited.2009.480p.BRRip.XviD.AC3-LEGi0N","uid":5721010,"size":1673772008,"categoryP":"other","categoryS":"other","magnet":"?xt=urn:btih:bb82194df4533ba67be96c79b7fc6fc5fcb2ced4&amp;dn=The.Last.Station.Limited.2009.480p.BRRip.XviD.AC3-LEGi0N&amp;tr=udp%3A%2F%2Ftracker.openbittorrent.com%3A80&amp;tr=udp%3A%2F%2Fopen.demonii.com%3A1337&amp;tr=udp%3A%2F%2Ftracker.coppersurfer.tk%3A6969&amp;tr=udp%3A%2F%2Fexodus.desync.com%3A6969","seeders":0,"leechers":1,"uploader":"TvTeam","files":5,"time":1280292765,"description":". \n  &lt;a href=&quot;\nhttp://www.torrentday.com/&quot; rel=&quot;nofollow&quot; target=&quot;_NEW&quot;&gt;\nhttp://www.torrentday.com/&lt;/a&gt;        :     The Hottest Private Tracker On The Net!!!\n\n\n               www . TorrentDay . Com \n(((((((((((((= Enjoy No RAR releases =))))))))))))))))))))\n\n\n...................................NFO:....................................\n\n.[img]http://leetleech.org/images/32521473805789496901.png[/img]\n\n[b]THE LAST STATION 2009 480p BRRip XviD AC3-LEGi0N\n\n[img]http://leetleech.org/images/48874973695367351744.png[/img][b]\n[color=red]General[/color]\nFormat: AVI\nFile size: 1.54 GiB\nDuration: 1h 52mn\nOverall bit rate: 1 958 Kbps\nIMDb Rating: 7.1/10   2,684 votes\nGenre: Biography | Drama\nRelease Date: 15 January 2010\nIMDb Link: http://www.imdb.com/title/tt0824758/\nSource: 720p Bluray x264-CBGB\n\n[color=red]Video[/color]\nFormat: MPEG-4 Visual\nFormat profile: Streaming Video@L1\nFormat settings, BVOP: Yes\nFormat settings, QPel: No\nFormat settings, GMC: No warppoints\nFormat settings, Matrix: Default (H.263)\nMuxing mode: Packed bitstream\nCodec ID: XVID\nBit rate: 1 500 Kbps\nWidth: 720 pixels\nHeight: 304 pixels\nDisplay aspect ratio: 2.35\nFrame rate: 23.976 fps\nResolution: 24 bits\nColorimetry: 4:2:0\nScan type: Progressive\nBits/(Pixel*Frame): 0.286\nStream size: 1.18 GiB (77%)\n\n[color=red]Audio[/color]\nFormat: AC-3\nBit rate mode: Constant\nBit rate: 448 Kbps\nChannel(s): 6 channels\nSampling rate: 48.0 KHz\nStream size: 361 MiB (23%)\n\n[img]http://leetleech.org/images/89524873606771859129.png[/img]\nA historical drama that illustrates Russian author Leo Tolstoy's \nstruggle to balance fame and wealth with his commitment to a life \ndevoid of material things.\n\n[color=red]Tagline:[/color] \nIntoxicating. Infuriating. Impossible. Love.\n\n[img]http://leetleech.org/images/84434050717770922575.png[/img]\nJames McAvoy\t... \tValentin Bulgakov\nPaul Giamatti\t... \tVladimir Chertkov\nHelen Mirren\t... \tSofya Tolstoy\nChristopher Plummer\t... \tLeo Tolstoy\nKerry Condon\t... \tMasha\nAnne-Marie Duff\t... \tSasha Tolstoy\nPatrick Kennedy\t... \tSergeyenko\nJohn Sessions\t... \tDushan\nDavid Masterson\t... \tReporter\nTomas Spencer\t... \tAndrey Tolstoy\n\n[color=red]GREETZ[/color]\nNoir | xXTHORNXx | bigimac | LUSi |\n\nkempas | KaN1vE | mike160 | skillz |\n\nLungbuster | Sheikh | dillon1369 |\n\nFLAWL3SS | AND ALL P2P![/b]\n\n[img]http://leetleech.org/images/95521316153253938506.png[/img]\n[img]http://leetleech.org/images/57565298368371245860.png[/img]\n[img]http://leetleech.org/images/02909778881445201690.png[/img]\n[img]http://leetleech.org/images/34367889447101580870.png[/img]\n[img]http://leetleech.org/images/42185406919622620155.png[/img]\n[img]http://leetleech.org/images/02421273206941429151.png[/img]\n[img]http://leetleech.org/images/12755021538703799215.png[/img]","torrent":{"xt":"urn:btih:bb82194df4533ba67be96c79b7fc6fc5fcb2ced4","amp;dn":"The.Last.Station.Limited.2009.480p.BRRip.XviD.AC3-LEGi0N","amp;tr":["udp%3A%2F%2Ftracker.openbittorrent.com%3A80","udp%3A%2F%2Fopen.demonii.com%3A1337","udp%3A%2F%2Ftracker.coppersurfer.tk%3A6969","udp%3A%2F%2Fexodus.desync.com%3A6969"],"infoHash":"bb82194df4533ba67be96c79b7fc6fc5fcb2ced4","infoHashBuffer":{"type":"Buffer","data":[187,130,25,77,244,83,59,166,123,233,108,121,183,252,111,197,252,178,206,212]},"announce":[],"urlList":[]}}